<?xml version="1.0" encoding="utf-8"?>
<!-- Generator: Adobe Illustrator 15.1.0, SVG Export Plug-In . SVG Version: 6.00 Build 0)  -->
<!DOCTYPE svg PUBLIC "-//W3C//DTD SVG 1.1//EN" "http://www.w3.org/Graphics/SVG/1.1/DTD/svg11.dtd">
<svg version="1.1" id="Layer_1" xmlns="http://www.w3.org/2000/svg" xmlns:xlink="http://www.w3.org/1999/xlink" x="0px" y="0px"
	 width="612px" height="792px" viewBox="0 0 612 792" enable-background="new 0 0 612 792" xml:space="preserve">
<path fill-rule="evenodd" clip-rule="evenodd" stroke="#000000" stroke-width="3" stroke-linecap="round" stroke-linejoin="round" stroke-miterlimit="22.9256" d="
	M226.01,388.097c-7.844-16.071-22.002-24.104-32.045-39.116c-10.045-15.012-15.975-37.004-24.01-54.554
	c-8.037-17.551-18.179-30.661-33.963-31.931c-19.694-1.583-6.566,0.723-23.024-11.205c-8.897-6.448-22.097-13.85-31.184-23.047
	c-9.088-9.199-14.064-20.192-16.072-28.862c-2.009-8.669-1.053-15.014-2.679-15.225c-1.626-0.211-5.836,5.708-10.524,14.167
	s-9.853,19.452-13.009,32.245c-3.157,12.793-4.306,27.383-1.052,43.455c3.252,16.069,10.904,33.619,22.098,42.922
	c11.259,9.353,6.211,3.079,5.23,20.613c-0.86,15.436,2.777,26.432,10.812,36.793c8.035,10.361,20.472,20.087,31.281,41.444
	c10.809,21.354,19.991,54.341,29.559,82.886c9.565,28.546,19.513,52.649,23.535,72.806
	c17.295,86.734,27.563,186.848,145.262,184.985c108.408-1.717,127.271-96.754,144.869-184.985
	c4.021-20.156,13.969-44.26,23.777-74.497s19.479-66.604,33.496-92.083c14.018-25.48,32.386-40.069,38.794-60.58
	c2.534-8.109,0.165-23.125,5.294-27.382c11.193-9.304,18.845-26.854,22.097-42.922c3.255-16.071,2.105-30.662-1.051-43.455
	c-3.157-12.793-8.322-23.787-13.01-32.245c-4.687-8.458-8.897-14.377-10.523-14.167s-0.67,6.556-2.68,15.225
	c-2.008,8.669-6.983,19.663-16.072,28.862c-9.087,9.197-22.286,16.599-31.185,23.047c-12.967,9.404-4.989,5.956-19.707,10.148
	c-14.113,4.017-18.323,18.818-26.689,35.311c-8.367,16.493-20.893,34.679-33.9,48.846c-13.01,14.167-21.055,23.05-28.566,40.176
	c-7.241,16.512-13.422,40.743-15.291,51.974c-2.884,17.335-4.545,13.557-6.301-32.102c-0.96-24.972-2.548-48.957-5.466-68.733
	c-0.622-24.025-1.244-44.789,0.475-67.061c2.157-27.964,8-58.307,4.366-82.198c-1.347-8.855-9.809-18.982-13.953-27.113
	c-2.204-4.325-1.749-9.913-1.536-10.421c5.069-12.05,2.392-31.083-3.332-46.676c-5.724-15.595-14.494-27.753-21.285-40.544
	c-6.792-12.793-11.608-26.219-16.312-26.396s-9.296,12.896-15.419,24.631c-6.123,11.734-13.774,22.13-20.088,33.883
	c-6.313,11.752-11.289,24.863-10.715,37.127c1.626,34.724-12.994,18.359-18.647,55.509c-3.634,23.893,2.209,54.233,4.367,82.198
	c1.718,22.272,1.096,43.036,0.474,67.061c-2.917,19.776-4.505,43.759-5.465,68.733C243.573,495.694,245.489,428.009,226.01,388.097z
	"/>
</svg>
